<svg width="576" height="548" viewBox="0 0 576 548" fill="none" xmlns="http://www.w3.org/2000/svg">
<path d="M111.124 231.401C111.124 231.401 111.126 216.901 117.125 200.901C123.125 184.901 130.624 173.901 130.624 173.901C130.624 173.901 124.625 173.901 123.125 158.401C121.624 142.901 126.165 141.401 126.165 141.401L162.125 154.901C162.125 154.901 181.625 158.401 195.125 164.401C208.625 170.401 227.125 184.901 227.125 184.901C242.941 195.641 251.809 201.662 267.625 212.401L307.125 238.401C307.125 238.401 313.624 244.401 333.625 267.401C353.625 290.401 355.625 310.402 355.625 310.402C355.625 310.402 362.124 330.901 360.625 362.401C359.125 393.902 341.125 423.401 341.125 423.401L365.125 401.901L379.125 376.901L382.625 318.901L365.125 267.401C365.125 267.401 305.624 195.901 296.625 170.401C287.625 144.901 287.625 123.901 287.625 123.901C287.625 123.901 281.124 120.401 296.625 84.9014C312.125 49.4015 328.625 40.4014 328.625 40.4014C328.625 40.4014 350.124 25.4014 382.625 22.9014C415.125 20.4015 439.125 33.9014 439.125 33.9014C439.125 33.9014 453.125 40.9014 466.625 56.4014C480.125 71.9014 478.125 67.4015 483.625 87.9015C489.125 108.401 489.125 123.901 489.125 123.901C489.125 123.901 490.625 131.901 476.125 152.901C461.625 173.902 450.625 173.901 450.625 173.901C450.625 173.901 456.625 145.401 456.125 141.401C455.625 137.401 448.625 123.901 433.625 123.901C418.625 123.901 408.125 137.401 408.125 137.401L408.125 161.401L446.625 220.401C446.625 220.401 468.125 256.902 472.125 279.901C476.124 302.901 480.624 311.901 478.125 342.401C475.625 372.901 453.625 405.901 453.625 405.901C453.625 405.901 439.625 446.402 379.125 477.901C318.624 509.401 268.125 502.401 268.125 502.401L137.125 502.401C137.125 502.401 134.124 494.401 137.125 484.901C140.125 475.402 144.624 468.401 164.125 462.901C183.625 457.402 222.125 459.901 222.125 459.901L203.625 434.901C203.625 434.901 185.624 401.901 195.625 372.901C205.625 343.901 234.625 329.401 234.625 329.401L176.625 347.401L94.6247 345.401C94.6247 345.401 82.6246 333.901 85.1248 330.901C87.625 327.901 98.1251 329.401 98.1251 329.401C98.1251 329.401 97.1246 322.901 98.125 322.401C99.1255 321.901 109.623 320.901 111.124 320.401C112.625 319.901 123.125 314.901 123.125 314.901L164.125 314.901L185.624 285.045L188.124 253.901L170.124 273.901C170.124 273.901 158.625 281.401 151.625 282.901C144.625 284.401 130.624 287.401 126.165 285.045C121.706 282.688 111.124 231.401 111.124 231.401Z" fill="#495057"/>
<path d="M12.625 250.401C12.625 250.401 68.6255 250.401 71.625 252.401C74.6245 254.401 71.625 257.901 71.625 257.901L28.625 265.401L75.625 334.901L125.125 405.901C125.125 405.901 129.125 408.901 131.125 409.901C133.125 410.901 144.625 409.901 144.625 409.901C144.625 409.901 139.625 416.401 137.125 418.901C134.625 421.401 125.125 426.401 125.125 426.401H114.625L0.625 261.901C0.625 261.901 -1.875 257.901 3.125 253.401C8.125 248.901 12.625 250.401 12.625 250.401Z" fill="#495057"/>
<path d="M51.9908 277.401C53.6257 276.401 80.126 274.401 82.626 275.401C85.126 276.401 85.6266 279.901 85.126 281.901C84.6255 283.901 79.1254 285.901 79.1254 285.901C79.1254 285.901 69.6254 287.401 65.1254 287.901C60.6254 288.401 51.1254 286.401 50.6255 283.401C50.1256 280.401 50.3559 278.401 51.9908 277.401Z" fill="#495057"/>
<path d="M72.6251 300.401C74.26 299.401 97.6252 294.401 100.125 295.401C102.625 296.401 104.053 299.636 103.552 301.636C103.052 303.636 95.1252 305.401 95.1252 305.401C95.1252 305.401 87.6252 306.401 83.5515 307.636C79.4778 308.871 70.125 308.401 69.6251 305.401C69.1252 302.401 70.9902 301.401 72.6251 300.401Z" fill="#495057"/>
<path d="M119.626 370.401C121.261 369.401 147.626 359.901 150.126 360.901C152.626 361.901 153.126 364.901 152.626 366.901C152.125 368.901 141.126 372.901 141.126 372.901C141.126 372.901 134.199 375.667 130.126 376.901C126.052 378.136 117.109 380.265 116.609 377.265C116.109 374.265 117.991 371.401 119.626 370.401Z" fill="#495057"/>
</svg>
